<svg width="586" height="61" viewBox="0 0 586 61" fill="none" xmlns="http://www.w3.org/2000/svg">
<g filter="url(#filter0_d_353_2409)">
<path d="M19.4405 18.2119V25.5719H33.8405V35.1079H19.4405V43.2359H35.7605V53.2839H6.8965V8.16387H35.7605V18.2119H19.4405ZM40.423 30.6279C40.423 26.1905 41.3403 22.2439 43.175 18.7879C45.0523 15.2892 47.6977 12.5799 51.111 10.6599C54.5243 8.69721 58.4497 7.71587 62.887 7.71587C68.519 7.71587 73.255 9.23054 77.095 12.2599C80.935 15.2465 83.4097 19.3212 84.519 24.4839H71.015C70.2043 22.7772 69.0737 21.4759 67.623 20.5799C66.215 19.6839 64.5723 19.2359 62.695 19.2359C59.7937 19.2359 57.4683 20.2812 55.719 22.3719C54.0123 24.4199 53.159 27.1719 53.159 30.6279C53.159 34.1265 54.0123 36.9212 55.719 39.0119C57.4683 41.0599 59.7937 42.0839 62.695 42.0839C64.5723 42.0839 66.215 41.6359 67.623 40.7399C69.0737 39.8439 70.2043 38.5425 71.015 36.8359H84.519C83.4097 41.9985 80.935 46.0945 77.095 49.1239C73.255 52.1105 68.519 53.6039 62.887 53.6039C58.4497 53.6039 54.5243 52.6439 51.111 50.7239C47.6977 48.7612 45.0523 46.0519 43.175 42.5959C41.3403 39.0972 40.423 35.1079 40.423 30.6279ZM107.483 53.7319C102.235 53.7319 97.9257 52.4945 94.555 50.0199C91.1843 47.5025 89.371 43.9185 89.115 39.2679H102.491C102.619 40.8465 103.088 41.9985 103.899 42.7239C104.71 43.4492 105.755 43.8119 107.035 43.8119C108.187 43.8119 109.126 43.5345 109.851 42.9799C110.619 42.3825 111.003 41.5719 111.003 40.5479C111.003 39.2252 110.384 38.2012 109.147 37.4759C107.91 36.7505 105.904 35.9399 103.131 35.0439C100.187 34.0625 97.7977 33.1239 95.963 32.2279C94.171 31.2892 92.5923 29.9452 91.227 28.1959C89.9043 26.4039 89.243 24.0785 89.243 21.2199C89.243 18.3185 89.9683 15.8439 91.419 13.7959C92.8697 11.7052 94.875 10.1265 97.435 9.05987C99.995 7.99321 102.896 7.45987 106.139 7.45987C111.387 7.45987 115.568 8.69721 118.683 11.1719C121.84 13.6039 123.526 17.0385 123.739 21.4759H110.107C110.064 20.1105 109.638 19.0865 108.827 18.4039C108.059 17.7212 107.056 17.3799 105.819 17.3799C104.88 17.3799 104.112 17.6572 103.515 18.2119C102.918 18.7665 102.619 19.5559 102.619 20.5799C102.619 21.4332 102.939 22.1799 103.579 22.8199C104.262 23.4172 105.094 23.9505 106.075 24.4199C107.056 24.8465 108.507 25.4012 110.427 26.0839C113.286 27.0652 115.632 28.0465 117.467 29.0279C119.344 29.9665 120.944 31.3105 122.267 33.0599C123.632 34.7665 124.315 36.9425 124.315 39.5879C124.315 42.2759 123.632 44.6865 122.267 46.8199C120.944 48.9532 119.003 50.6385 116.443 51.8759C113.926 53.1132 110.939 53.7319 107.483 53.7319ZM154.941 43.6839H168.957V53.2839H142.397V8.16387H154.941V43.6839ZM202.378 45.9239H186.378L183.946 53.2839H170.762L187.21 8.16387H201.674L218.058 53.2839H204.81L202.378 45.9239ZM199.242 36.3239L194.378 21.7319L189.578 36.3239H199.242ZM250.947 30.1159C253.592 30.7132 255.683 32.0359 257.219 34.0839C258.797 36.0892 259.587 38.3932 259.587 40.9959C259.587 44.8359 258.264 47.8439 255.619 50.0199C252.973 52.1959 249.261 53.2839 244.483 53.2839H222.147V8.16387H243.779C248.387 8.16387 251.992 9.18787 254.595 11.2359C257.24 13.2839 258.562 16.1639 258.562 19.8759C258.562 22.5212 257.859 24.7399 256.451 26.5319C255.085 28.2812 253.251 29.4759 250.947 30.1159ZM234.691 26.0839H241.027C244.184 26.0839 245.763 24.7825 245.763 22.1799C245.763 19.4919 244.184 18.1479 241.027 18.1479H234.691V26.0839ZM241.987 43.1719C245.144 43.1719 246.723 41.8492 246.723 39.2039C246.723 37.8385 246.296 36.7932 245.443 36.0679C244.632 35.3425 243.459 34.9799 241.923 34.9799H234.691V43.1719H241.987ZM286.716 53.7319C282.492 53.7319 278.609 52.7505 275.068 50.7879C271.527 48.7825 268.711 46.0305 266.62 42.5319C264.572 38.9905 263.548 35.0012 263.548 30.5639C263.548 26.1265 264.572 22.1585 266.62 18.6599C268.711 15.1185 271.527 12.3665 275.068 10.4039C278.609 8.44121 282.492 7.45987 286.716 7.45987C290.983 7.45987 294.865 8.44121 298.364 10.4039C301.905 12.3665 304.7 15.1185 306.748 18.6599C308.796 22.1585 309.82 26.1265 309.82 30.5639C309.82 35.0012 308.796 38.9905 306.748 42.5319C304.7 46.0305 301.905 48.7825 298.364 50.7879C294.823 52.7505 290.94 53.7319 286.716 53.7319ZM286.716 42.0839C289.916 42.0839 292.433 41.0385 294.268 38.9479C296.145 36.8572 297.084 34.0625 297.084 30.5639C297.084 26.9799 296.145 24.1639 294.268 22.1159C292.433 20.0252 289.916 18.9799 286.716 18.9799C283.473 18.9799 280.935 20.0252 279.1 22.1159C277.265 24.1639 276.348 26.9799 276.348 30.5639C276.348 34.1052 277.265 36.9212 279.1 39.0119C280.935 41.0599 283.473 42.0839 286.716 42.0839ZM338.307 53.2839L329.347 36.6439H328.003V53.2839H315.459V8.16387H335.235C338.862 8.16387 341.934 8.80387 344.451 10.0839C346.968 11.3212 348.867 13.0492 350.147 15.2679C351.427 17.4439 352.067 19.8972 352.067 22.6279C352.067 25.6999 351.214 28.4092 349.507 30.7559C347.843 33.0599 345.39 34.7025 342.147 35.6839L352.323 53.2839H338.307ZM328.003 28.0679H334.211C335.918 28.0679 337.198 27.6625 338.051 26.8519C338.904 26.0412 339.331 24.8679 339.331 23.3319C339.331 21.8812 338.883 20.7505 337.987 19.9399C337.134 19.0865 335.875 18.6599 334.211 18.6599H328.003V28.0679ZM386.316 45.9239H370.316L367.884 53.2839H354.7L371.148 8.16387H385.612L401.996 53.2839H388.748L386.316 45.9239ZM383.18 36.3239L378.316 21.7319L373.516 36.3239H383.18ZM440.068 8.16387V18.1479H428.036V53.2839H415.492V18.1479H403.588V8.16387H440.068ZM466.341 53.7319C462.117 53.7319 458.234 52.7505 454.693 50.7879C451.152 48.7825 448.336 46.0305 446.245 42.5319C444.197 38.9905 443.173 35.0012 443.173 30.5639C443.173 26.1265 444.197 22.1585 446.245 18.6599C448.336 15.1185 451.152 12.3665 454.693 10.4039C458.234 8.44121 462.117 7.45987 466.341 7.45987C470.608 7.45987 474.49 8.44121 477.989 10.4039C481.53 12.3665 484.325 15.1185 486.373 18.6599C488.421 22.1585 489.445 26.1265 489.445 30.5639C489.445 35.0012 488.421 38.9905 486.373 42.5319C484.325 46.0305 481.53 48.7825 477.989 50.7879C474.448 52.7505 470.565 53.7319 466.341 53.7319ZM466.341 42.0839C469.541 42.0839 472.058 41.0385 473.893 38.9479C475.77 36.8572 476.709 34.0625 476.709 30.5639C476.709 26.9799 475.77 24.1639 473.893 22.1159C472.058 20.0252 469.541 18.9799 466.341 18.9799C463.098 18.9799 460.56 20.0252 458.725 22.1159C456.89 24.1639 455.973 26.9799 455.973 30.5639C455.973 34.1052 456.89 36.9212 458.725 39.0119C460.56 41.0599 463.098 42.0839 466.341 42.0839ZM517.932 53.2839L508.972 36.6439H507.628V53.2839H495.084V8.16387H514.86C518.487 8.16387 521.559 8.80387 524.076 10.0839C526.593 11.3212 528.492 13.0492 529.772 15.2679C531.052 17.4439 531.692 19.8972 531.692 22.6279C531.692 25.6999 530.839 28.4092 529.132 30.7559C527.468 33.0599 525.015 34.7025 521.772 35.6839L531.948 53.2839H517.932ZM507.628 28.0679H513.836C515.543 28.0679 516.823 27.6625 517.676 26.8519C518.529 26.0412 518.956 24.8679 518.956 23.3319C518.956 21.8812 518.508 20.7505 517.612 19.9399C516.759 19.0865 515.5 18.6599 513.836 18.6599H507.628V28.0679ZM578.421 8.16387L562.549 38.9479V53.2839H549.941V38.9479L534.069 8.16387H548.405L556.341 25.5719L564.277 8.16387H578.421Z" fill="#AFACA2"/>
</g>
<defs>
<filter id="filter0_d_353_2409" x="0.296484" y="0.8599" width="584.724" height="59.472" filterUnits="userSpaceOnUse" color-interpolation-filters="sRGB">
<feFlood flood-opacity="0" result="BackgroundImageFix"/>
<feColorMatrix in="SourceAlpha" type="matrix" values="0 0 0 0 0 0 0 0 0 0 0 0 0 0 0 0 0 0 127 0" result="hardAlpha"/>
<feMorphology radius="4" operator="dilate" in="SourceAlpha" result="effect1_dropShadow_353_2409"/>
<feOffset/>
<feGaussianBlur stdDeviation="1.3"/>
<feComposite in2="hardAlpha" operator="out"/>
<feColorMatrix type="matrix" values="0 0 0 0 0.194948 0 0 0 0 0.194276 0 0 0 0 0.191699 0 0 0 1 0"/>
<feBlend mode="normal" in2="BackgroundImageFix" result="effect1_dropShadow_353_2409"/>
<feBlend mode="normal" in="SourceGraphic" in2="effect1_dropShadow_353_2409" result="shape"/>
</filter>
</defs>
</svg>
