<svg width="75" height="24" viewBox="0 0 75 24" fill="none" xmlns="http://www.w3.org/2000/svg">
<g clip-path="url(#clip0_683_2714)">
<path d="M12 11C14.2091 11 16 9.20914 16 7C16 4.79086 14.2091 3 12 3C9.79086 3 8 4.79086 8 7C8 9.20914 9.79086 11 12 11Z" stroke="white" stroke-width="2" stroke-linecap="round" stroke-linejoin="round"/>
<path d="M6 21V19C6 17.9391 6.42143 16.9217 7.17157 16.1716C7.92172 15.4214 8.93913 15 10 15H14C15.0609 15 16.0783 15.4214 16.8284 16.1716C17.5786 16.9217 18 17.9391 18 19V21" stroke="white" stroke-width="2" stroke-linecap="round" stroke-linejoin="round"/>
</g>
<path d="M31.1832 18H29.706L33.9787 6.36364H35.4332L39.706 18H38.2287L34.7514 8.20455H34.6605L31.1832 18ZM31.7287 13.4545H37.6832V14.7045H31.7287V13.4545ZM41.5185 18V6.36364H42.8594V10.6591H42.973C43.0715 10.5076 43.2079 10.3144 43.3821 10.0795C43.5601 9.84091 43.8139 9.62879 44.1435 9.44318C44.4768 9.25379 44.9276 9.15909 45.4957 9.15909C46.2306 9.15909 46.8783 9.3428 47.4389 9.71023C47.9995 10.0777 48.437 10.5985 48.7514 11.2727C49.0658 11.947 49.223 12.7424 49.223 13.6591C49.223 14.5833 49.0658 15.3845 48.7514 16.0625C48.437 16.7367 48.0014 17.2595 47.4446 17.6307C46.8878 17.9981 46.2457 18.1818 45.5185 18.1818C44.9579 18.1818 44.509 18.089 44.1719 17.9034C43.8348 17.714 43.5753 17.5 43.3935 17.2614C43.2116 17.0189 43.0715 16.8182 42.973 16.6591H42.8139V18H41.5185ZM42.8366 13.6364C42.8366 14.2955 42.9332 14.8769 43.1264 15.3807C43.3196 15.8807 43.6018 16.2727 43.973 16.5568C44.3442 16.8371 44.7988 16.9773 45.3366 16.9773C45.8973 16.9773 46.3651 16.8295 46.7401 16.5341C47.1188 16.2348 47.4029 15.8333 47.5923 15.3295C47.7855 14.822 47.8821 14.2576 47.8821 13.6364C47.8821 13.0227 47.7874 12.4697 47.598 11.9773C47.4124 11.4811 47.1302 11.089 46.7514 10.8011C46.3764 10.5095 45.9048 10.3636 45.3366 10.3636C44.7912 10.3636 44.3329 10.5019 43.9616 10.7784C43.5904 11.0511 43.3101 11.4337 43.1207 11.9261C42.9313 12.4148 42.8366 12.9848 42.8366 13.6364ZM54.8196 18.1818C54.0317 18.1818 53.3404 17.9943 52.7457 17.6193C52.1548 17.2443 51.6927 16.7197 51.3594 16.0455C51.0298 15.3712 50.8651 14.5833 50.8651 13.6818C50.8651 12.7727 51.0298 11.9792 51.3594 11.3011C51.6927 10.6231 52.1548 10.0966 52.7457 9.72159C53.3404 9.34659 54.0317 9.15909 54.8196 9.15909C55.6075 9.15909 56.2969 9.34659 56.8878 9.72159C57.4825 10.0966 57.9446 10.6231 58.2741 11.3011C58.6075 11.9792 58.7741 12.7727 58.7741 13.6818C58.7741 14.5833 58.6075 15.3712 58.2741 16.0455C57.9446 16.7197 57.4825 17.2443 56.8878 17.6193C56.2969 17.9943 55.6075 18.1818 54.8196 18.1818ZM54.8196 16.9773C55.4181 16.9773 55.9105 16.8239 56.2969 16.517C56.6832 16.2102 56.9692 15.8068 57.1548 15.3068C57.3404 14.8068 57.4332 14.2652 57.4332 13.6818C57.4332 13.0985 57.3404 12.5549 57.1548 12.0511C56.9692 11.5473 56.6832 11.1402 56.2969 10.8295C55.9105 10.5189 55.4181 10.3636 54.8196 10.3636C54.2211 10.3636 53.7287 10.5189 53.3423 10.8295C52.956 11.1402 52.67 11.5473 52.4844 12.0511C52.2988 12.5549 52.206 13.0985 52.206 13.6818C52.206 14.2652 52.2988 14.8068 52.4844 15.3068C52.67 15.8068 52.956 16.2102 53.3423 16.517C53.7287 16.8239 54.2211 16.9773 54.8196 16.9773ZM66.321 14.4318V9.27273H67.6619V18H66.321V16.5227H66.2301C66.0256 16.9659 65.7074 17.3428 65.2756 17.6534C64.8438 17.9602 64.2983 18.1136 63.6392 18.1136C63.0938 18.1136 62.6089 17.9943 62.1847 17.7557C61.7604 17.5133 61.4271 17.1496 61.1847 16.6648C60.9422 16.1761 60.821 15.5606 60.821 14.8182V9.27273H62.1619V14.7273C62.1619 15.3636 62.34 15.8712 62.696 16.25C63.0559 16.6288 63.5142 16.8182 64.071 16.8182C64.4044 16.8182 64.7434 16.733 65.0881 16.5625C65.4366 16.392 65.7282 16.1307 65.9631 15.7784C66.2017 15.4261 66.321 14.9773 66.321 14.4318ZM73.9134 9.27273V10.4091H69.3906V9.27273H73.9134ZM70.7088 7.18182H72.0497V15.5C72.0497 15.8788 72.1046 16.1629 72.2145 16.3523C72.3281 16.5379 72.4721 16.6629 72.6463 16.7273C72.8243 16.7879 73.0118 16.8182 73.2088 16.8182C73.3565 16.8182 73.4777 16.8106 73.5724 16.7955C73.6671 16.7765 73.7429 16.7614 73.7997 16.75L74.0724 17.9545C73.9815 17.9886 73.8546 18.0227 73.6918 18.0568C73.5289 18.0947 73.3224 18.1136 73.0724 18.1136C72.6937 18.1136 72.3224 18.0322 71.9588 17.8693C71.599 17.7064 71.2997 17.4583 71.0611 17.125C70.8262 16.7917 70.7088 16.3712 70.7088 15.8636V7.18182Z" fill="white"/>
<defs>
<clipPath id="clip0_683_2714">
<rect width="24" height="24" fill="white"/>
</clipPath>
</defs>
</svg>
