<svg width="395" height="36" viewBox="0 0 395 36" fill="none" xmlns="http://www.w3.org/2000/svg">
<path d="M0.991477 13.6136V12.3636H9.71875V13.6136H6.05966V24H4.65057V13.6136H0.991477ZM13.0526 18.75V24H11.7116V12.3636H13.0526V16.6364H13.1662C13.3707 16.1856 13.6776 15.8277 14.0866 15.5625C14.4995 15.2936 15.0488 15.1591 15.7344 15.1591C16.3291 15.1591 16.8499 15.2784 17.2969 15.517C17.7438 15.7519 18.0904 16.1136 18.3366 16.6023C18.5866 17.0871 18.7116 17.7045 18.7116 18.4545V24H17.3707V18.5455C17.3707 17.8523 17.1908 17.3163 16.831 16.9375C16.4749 16.5549 15.9806 16.3636 15.348 16.3636C14.9086 16.3636 14.5147 16.4564 14.1662 16.642C13.8215 16.8277 13.5488 17.0985 13.348 17.4545C13.151 17.8106 13.0526 18.2424 13.0526 18.75ZM24.8239 24.1818C23.983 24.1818 23.2576 23.9962 22.6477 23.625C22.0417 23.25 21.5739 22.7273 21.2443 22.0568C20.9186 21.3826 20.7557 20.5985 20.7557 19.7045C20.7557 18.8106 20.9186 18.0227 21.2443 17.3409C21.5739 16.6553 22.0322 16.1212 22.6193 15.7386C23.2102 15.3523 23.8996 15.1591 24.6875 15.1591C25.142 15.1591 25.5909 15.2348 26.0341 15.3864C26.4773 15.5379 26.8807 15.7841 27.2443 16.125C27.608 16.4621 27.8977 16.9091 28.1136 17.4659C28.3295 18.0227 28.4375 18.7083 28.4375 19.5227V20.0909H21.7102V18.9318H27.0739C27.0739 18.4394 26.9754 18 26.7784 17.6136C26.5852 17.2273 26.3087 16.9223 25.9489 16.6989C25.5928 16.4754 25.1723 16.3636 24.6875 16.3636C24.1534 16.3636 23.6913 16.4962 23.3011 16.7614C22.9148 17.0227 22.6174 17.3636 22.4091 17.7841C22.2008 18.2045 22.0966 18.6553 22.0966 19.1364V19.9091C22.0966 20.5682 22.2102 21.1269 22.4375 21.5852C22.6686 22.0398 22.9886 22.3864 23.3977 22.625C23.8068 22.8598 24.2822 22.9773 24.8239 22.9773C25.1761 22.9773 25.4943 22.928 25.7784 22.8295C26.0663 22.7273 26.3144 22.5758 26.5227 22.375C26.7311 22.1705 26.892 21.9167 27.0057 21.6136L28.3011 21.9773C28.1648 22.4167 27.9356 22.803 27.6136 23.1364C27.2917 23.4659 26.8939 23.7235 26.4205 23.9091C25.947 24.0909 25.4148 24.1818 24.8239 24.1818ZM36.9545 24L34.2955 15.2727H35.7045L37.5909 21.9545H37.6818L39.5455 15.2727H40.9773L42.8182 21.9318H42.9091L44.7955 15.2727H46.2045L43.5455 24H42.2273L40.3182 17.2955H40.1818L38.2727 24H36.9545ZM51.2259 24.1818C50.438 24.1818 49.7467 23.9943 49.152 23.6193C48.5611 23.2443 48.099 22.7197 47.7656 22.0455C47.4361 21.3712 47.2713 20.5833 47.2713 19.6818C47.2713 18.7727 47.4361 17.9792 47.7656 17.3011C48.099 16.6231 48.5611 16.0966 49.152 15.7216C49.7467 15.3466 50.438 15.1591 51.2259 15.1591C52.0137 15.1591 52.7031 15.3466 53.294 15.7216C53.8887 16.0966 54.3509 16.6231 54.6804 17.3011C55.0137 17.9792 55.1804 18.7727 55.1804 19.6818C55.1804 20.5833 55.0137 21.3712 54.6804 22.0455C54.3509 22.7197 53.8887 23.2443 53.294 23.6193C52.7031 23.9943 52.0137 24.1818 51.2259 24.1818ZM51.2259 22.9773C51.8243 22.9773 52.3168 22.8239 52.7031 22.517C53.0895 22.2102 53.3755 21.8068 53.5611 21.3068C53.7467 20.8068 53.8395 20.2652 53.8395 19.6818C53.8395 19.0985 53.7467 18.5549 53.5611 18.0511C53.3755 17.5473 53.0895 17.1402 52.7031 16.8295C52.3168 16.5189 51.8243 16.3636 51.2259 16.3636C50.6274 16.3636 50.1349 16.5189 49.7486 16.8295C49.3622 17.1402 49.0762 17.5473 48.8906 18.0511C48.705 18.5549 48.6122 19.0985 48.6122 19.6818C48.6122 20.2652 48.705 20.8068 48.8906 21.3068C49.0762 21.8068 49.3622 22.2102 49.7486 22.517C50.1349 22.8239 50.6274 22.9773 51.2259 22.9773ZM57.2273 24V15.2727H58.5227V16.5909H58.6136C58.7727 16.1591 59.0606 15.8087 59.4773 15.5398C59.8939 15.2708 60.3636 15.1364 60.8864 15.1364C60.9848 15.1364 61.108 15.1383 61.2557 15.142C61.4034 15.1458 61.5152 15.1515 61.5909 15.1591V16.5227C61.5455 16.5114 61.4413 16.4943 61.2784 16.4716C61.1193 16.4451 60.9508 16.4318 60.7727 16.4318C60.3485 16.4318 59.9697 16.5208 59.6364 16.6989C59.3068 16.8731 59.0455 17.1155 58.8523 17.4261C58.6629 17.733 58.5682 18.0833 58.5682 18.4773V24H57.2273ZM64.5213 12.3636V24H63.1804V12.3636H64.5213ZM70.2727 24.1818C69.5455 24.1818 68.9034 23.9981 68.3466 23.6307C67.7898 23.2595 67.3542 22.7367 67.0398 22.0625C66.7254 21.3845 66.5682 20.5833 66.5682 19.6591C66.5682 18.7424 66.7254 17.947 67.0398 17.2727C67.3542 16.5985 67.7917 16.0777 68.3523 15.7102C68.9129 15.3428 69.5606 15.1591 70.2955 15.1591C70.8636 15.1591 71.3125 15.2538 71.642 15.4432C71.9754 15.6288 72.2292 15.8409 72.4034 16.0795C72.5814 16.3144 72.7197 16.5076 72.8182 16.6591H72.9318V12.3636H74.2727V24H72.9773V22.6591H72.8182C72.7197 22.8182 72.5795 23.0189 72.3977 23.2614C72.2159 23.5 71.9564 23.714 71.6193 23.9034C71.2822 24.089 70.8333 24.1818 70.2727 24.1818ZM70.4545 22.9773C70.9924 22.9773 71.447 22.8371 71.8182 22.5568C72.1894 22.2727 72.4716 21.8807 72.6648 21.3807C72.858 20.8769 72.9545 20.2955 72.9545 19.6364C72.9545 18.9848 72.8598 18.4148 72.6705 17.9261C72.4811 17.4337 72.2008 17.0511 71.8295 16.7784C71.4583 16.5019 71 16.3636 70.4545 16.3636C69.8864 16.3636 69.4129 16.5095 69.0341 16.8011C68.6591 17.089 68.3769 17.4811 68.1875 17.9773C68.0019 18.4697 67.9091 19.0227 67.9091 19.6364C67.9091 20.2576 68.0038 20.822 68.1932 21.3295C68.3864 21.8333 68.6705 22.2348 69.0455 22.5341C69.4242 22.8295 69.8939 22.9773 70.4545 22.9773ZM83.392 24L80.733 15.2727H82.142L84.0284 21.9545H84.1193L85.983 15.2727H87.4148L89.2557 21.9318H89.3466L91.233 15.2727H92.642L89.983 24H88.6648L86.7557 17.2955H86.6193L84.7102 24H83.392ZM95.7557 18.75V24H94.4148V12.3636H95.7557V16.6364H95.8693C96.0739 16.1856 96.3807 15.8277 96.7898 15.5625C97.2027 15.2936 97.7519 15.1591 98.4375 15.1591C99.0322 15.1591 99.553 15.2784 100 15.517C100.447 15.7519 100.794 16.1136 101.04 16.6023C101.29 17.0871 101.415 17.7045 101.415 18.4545V24H100.074V18.5455C100.074 17.8523 99.8939 17.3163 99.5341 16.9375C99.178 16.5549 98.6837 16.3636 98.0511 16.3636C97.6117 16.3636 97.2178 16.4564 96.8693 16.642C96.5246 16.8277 96.2519 17.0985 96.0511 17.4545C95.8542 17.8106 95.7557 18.2424 95.7557 18.75ZM107.527 24.1818C106.686 24.1818 105.961 23.9962 105.351 23.625C104.745 23.25 104.277 22.7273 103.947 22.0568C103.622 21.3826 103.459 20.5985 103.459 19.7045C103.459 18.8106 103.622 18.0227 103.947 17.3409C104.277 16.6553 104.735 16.1212 105.322 15.7386C105.913 15.3523 106.603 15.1591 107.391 15.1591C107.845 15.1591 108.294 15.2348 108.737 15.3864C109.18 15.5379 109.584 15.7841 109.947 16.125C110.311 16.4621 110.601 16.9091 110.817 17.4659C111.033 18.0227 111.141 18.7083 111.141 19.5227V20.0909H104.413V18.9318H109.777C109.777 18.4394 109.679 18 109.482 17.6136C109.288 17.2273 109.012 16.9223 108.652 16.6989C108.296 16.4754 107.875 16.3636 107.391 16.3636C106.857 16.3636 106.394 16.4962 106.004 16.7614C105.618 17.0227 105.321 17.3636 105.112 17.7841C104.904 18.2045 104.8 18.6553 104.8 19.1364V19.9091C104.8 20.5682 104.913 21.1269 105.141 21.5852C105.372 22.0398 105.692 22.3864 106.101 22.625C106.51 22.8598 106.985 22.9773 107.527 22.9773C107.879 22.9773 108.197 22.928 108.482 22.8295C108.769 22.7273 109.018 22.5758 109.226 22.375C109.434 22.1705 109.595 21.9167 109.709 21.6136L111.004 21.9773C110.868 22.4167 110.639 22.803 110.317 23.1364C109.995 23.4659 109.597 23.7235 109.124 23.9091C108.65 24.0909 108.118 24.1818 107.527 24.1818ZM113.18 24V15.2727H114.476V16.5909H114.567C114.726 16.1591 115.014 15.8087 115.43 15.5398C115.847 15.2708 116.317 15.1364 116.839 15.1364C116.938 15.1364 117.061 15.1383 117.209 15.142C117.357 15.1458 117.468 15.1515 117.544 15.1591V16.5227C117.499 16.5114 117.394 16.4943 117.232 16.4716C117.072 16.4451 116.904 16.4318 116.726 16.4318C116.302 16.4318 115.923 16.5208 115.589 16.6989C115.26 16.8731 114.999 17.1155 114.805 17.4261C114.616 17.733 114.521 18.0833 114.521 18.4773V24H113.18ZM122.527 24.1818C121.686 24.1818 120.961 23.9962 120.351 23.625C119.745 23.25 119.277 22.7273 118.947 22.0568C118.622 21.3826 118.459 20.5985 118.459 19.7045C118.459 18.8106 118.622 18.0227 118.947 17.3409C119.277 16.6553 119.735 16.1212 120.322 15.7386C120.913 15.3523 121.603 15.1591 122.391 15.1591C122.845 15.1591 123.294 15.2348 123.737 15.3864C124.18 15.5379 124.584 15.7841 124.947 16.125C125.311 16.4621 125.601 16.9091 125.817 17.4659C126.033 18.0227 126.141 18.7083 126.141 19.5227V20.0909H119.413V18.9318H124.777C124.777 18.4394 124.679 18 124.482 17.6136C124.288 17.2273 124.012 16.9223 123.652 16.6989C123.296 16.4754 122.875 16.3636 122.391 16.3636C121.857 16.3636 121.394 16.4962 121.004 16.7614C120.618 17.0227 120.321 17.3636 120.112 17.7841C119.904 18.2045 119.8 18.6553 119.8 19.1364V19.9091C119.8 20.5682 119.913 21.1269 120.141 21.5852C120.372 22.0398 120.692 22.3864 121.101 22.625C121.51 22.8598 121.985 22.9773 122.527 22.9773C122.879 22.9773 123.197 22.928 123.482 22.8295C123.769 22.7273 124.018 22.5758 124.226 22.375C124.434 22.1705 124.595 21.9167 124.709 21.6136L126.004 21.9773C125.868 22.4167 125.639 22.803 125.317 23.1364C124.995 23.4659 124.597 23.7235 124.124 23.9091C123.65 24.0909 123.118 24.1818 122.527 24.1818ZM134.658 24L131.999 15.2727H133.408L135.294 21.9545H135.385L137.249 15.2727H138.68L140.521 21.9318H140.612L142.499 15.2727H143.908L141.249 24H139.93L138.021 17.2955H137.885L135.976 24H134.658ZM149.043 24.1818C148.202 24.1818 147.476 23.9962 146.866 23.625C146.26 23.25 145.793 22.7273 145.463 22.0568C145.137 21.3826 144.974 20.5985 144.974 19.7045C144.974 18.8106 145.137 18.0227 145.463 17.3409C145.793 16.6553 146.251 16.1212 146.838 15.7386C147.429 15.3523 148.118 15.1591 148.906 15.1591C149.361 15.1591 149.81 15.2348 150.253 15.3864C150.696 15.5379 151.099 15.7841 151.463 16.125C151.827 16.4621 152.116 16.9091 152.332 17.4659C152.548 18.0227 152.656 18.7083 152.656 19.5227V20.0909H145.929V18.9318H151.293C151.293 18.4394 151.194 18 150.997 17.6136C150.804 17.2273 150.527 16.9223 150.168 16.6989C149.812 16.4754 149.391 16.3636 148.906 16.3636C148.372 16.3636 147.91 16.4962 147.52 16.7614C147.134 17.0227 146.836 17.3636 146.628 17.7841C146.42 18.2045 146.315 18.6553 146.315 19.1364V19.9091C146.315 20.5682 146.429 21.1269 146.656 21.5852C146.887 22.0398 147.207 22.3864 147.616 22.625C148.026 22.8598 148.501 22.9773 149.043 22.9773C149.395 22.9773 149.713 22.928 149.997 22.8295C150.285 22.7273 150.533 22.5758 150.741 22.375C150.95 22.1705 151.111 21.9167 151.224 21.6136L152.52 21.9773C152.384 22.4167 152.154 22.803 151.832 23.1364C151.51 23.4659 151.113 23.7235 150.639 23.9091C150.166 24.0909 149.634 24.1818 149.043 24.1818ZM162.855 24.1818C162.014 24.1818 161.289 23.9962 160.679 23.625C160.073 23.25 159.605 22.7273 159.276 22.0568C158.95 21.3826 158.787 20.5985 158.787 19.7045C158.787 18.8106 158.95 18.0227 159.276 17.3409C159.605 16.6553 160.063 16.1212 160.651 15.7386C161.241 15.3523 161.931 15.1591 162.719 15.1591C163.173 15.1591 163.622 15.2348 164.065 15.3864C164.509 15.5379 164.912 15.7841 165.276 16.125C165.639 16.4621 165.929 16.9091 166.145 17.4659C166.361 18.0227 166.469 18.7083 166.469 19.5227V20.0909H159.741V18.9318H165.105C165.105 18.4394 165.007 18 164.81 17.6136C164.616 17.2273 164.34 16.9223 163.98 16.6989C163.624 16.4754 163.204 16.3636 162.719 16.3636C162.185 16.3636 161.723 16.4962 161.332 16.7614C160.946 17.0227 160.649 17.3636 160.44 17.7841C160.232 18.2045 160.128 18.6553 160.128 19.1364V19.9091C160.128 20.5682 160.241 21.1269 160.469 21.5852C160.7 22.0398 161.02 22.3864 161.429 22.625C161.838 22.8598 162.313 22.9773 162.855 22.9773C163.207 22.9773 163.526 22.928 163.81 22.8295C164.098 22.7273 164.346 22.5758 164.554 22.375C164.762 22.1705 164.923 21.9167 165.037 21.6136L166.332 21.9773C166.196 22.4167 165.967 22.803 165.645 23.1364C165.323 23.4659 164.925 23.7235 164.452 23.9091C163.978 24.0909 163.446 24.1818 162.855 24.1818ZM169.274 15.2727L171.365 18.8409L173.456 15.2727H175.001L172.183 19.6364L175.001 24H173.456L171.365 20.6136L169.274 24H167.729L170.501 19.6364L167.729 15.2727H169.274ZM176.915 27.2727V15.2727H178.21V16.6591H178.369C178.468 16.5076 178.604 16.3144 178.778 16.0795C178.956 15.8409 179.21 15.6288 179.54 15.4432C179.873 15.2538 180.324 15.1591 180.892 15.1591C181.627 15.1591 182.275 15.3428 182.835 15.7102C183.396 16.0777 183.833 16.5985 184.148 17.2727C184.462 17.947 184.619 18.7424 184.619 19.6591C184.619 20.5833 184.462 21.3845 184.148 22.0625C183.833 22.7367 183.398 23.2595 182.841 23.6307C182.284 23.9981 181.642 24.1818 180.915 24.1818C180.354 24.1818 179.905 24.089 179.568 23.9034C179.231 23.714 178.972 23.5 178.79 23.2614C178.608 23.0189 178.468 22.8182 178.369 22.6591H178.256V27.2727H176.915ZM178.233 19.6364C178.233 20.2955 178.33 20.8769 178.523 21.3807C178.716 21.8807 178.998 22.2727 179.369 22.5568C179.741 22.8371 180.195 22.9773 180.733 22.9773C181.294 22.9773 181.761 22.8295 182.136 22.5341C182.515 22.2348 182.799 21.8333 182.989 21.3295C183.182 20.822 183.278 20.2576 183.278 19.6364C183.278 19.0227 183.184 18.4697 182.994 17.9773C182.809 17.4811 182.527 17.089 182.148 16.8011C181.773 16.5095 181.301 16.3636 180.733 16.3636C180.188 16.3636 179.729 16.5019 179.358 16.7784C178.987 17.0511 178.706 17.4337 178.517 17.9261C178.328 18.4148 178.233 18.9848 178.233 19.6364ZM188.006 12.3636V24H186.665V12.3636H188.006ZM194.007 24.1818C193.219 24.1818 192.528 23.9943 191.933 23.6193C191.342 23.2443 190.88 22.7197 190.547 22.0455C190.217 21.3712 190.053 20.5833 190.053 19.6818C190.053 18.7727 190.217 17.9792 190.547 17.3011C190.88 16.6231 191.342 16.0966 191.933 15.7216C192.528 15.3466 193.219 15.1591 194.007 15.1591C194.795 15.1591 195.484 15.3466 196.075 15.7216C196.67 16.0966 197.132 16.6231 197.462 17.3011C197.795 17.9792 197.962 18.7727 197.962 19.6818C197.962 20.5833 197.795 21.3712 197.462 22.0455C197.132 22.7197 196.67 23.2443 196.075 23.6193C195.484 23.9943 194.795 24.1818 194.007 24.1818ZM194.007 22.9773C194.606 22.9773 195.098 22.8239 195.484 22.517C195.871 22.2102 196.157 21.8068 196.342 21.3068C196.528 20.8068 196.621 20.2652 196.621 19.6818C196.621 19.0985 196.528 18.5549 196.342 18.0511C196.157 17.5473 195.871 17.1402 195.484 16.8295C195.098 16.5189 194.606 16.3636 194.007 16.3636C193.409 16.3636 192.916 16.5189 192.53 16.8295C192.143 17.1402 191.857 17.5473 191.672 18.0511C191.486 18.5549 191.393 19.0985 191.393 19.6818C191.393 20.2652 191.486 20.8068 191.672 21.3068C191.857 21.8068 192.143 22.2102 192.53 22.517C192.916 22.8239 193.409 22.9773 194.007 22.9773ZM200.009 24V15.2727H201.304V16.5909H201.395C201.554 16.1591 201.842 15.8087 202.259 15.5398C202.675 15.2708 203.145 15.1364 203.668 15.1364C203.766 15.1364 203.889 15.1383 204.037 15.142C204.185 15.1458 204.296 15.1515 204.372 15.1591V16.5227C204.327 16.5114 204.223 16.4943 204.06 16.4716C203.901 16.4451 203.732 16.4318 203.554 16.4318C203.13 16.4318 202.751 16.5208 202.418 16.6989C202.088 16.8731 201.827 17.1155 201.634 17.4261C201.444 17.733 201.349 18.0833 201.349 18.4773V24H200.009ZM209.355 24.1818C208.514 24.1818 207.789 23.9962 207.179 23.625C206.573 23.25 206.105 22.7273 205.776 22.0568C205.45 21.3826 205.287 20.5985 205.287 19.7045C205.287 18.8106 205.45 18.0227 205.776 17.3409C206.105 16.6553 206.563 16.1212 207.151 15.7386C207.741 15.3523 208.431 15.1591 209.219 15.1591C209.673 15.1591 210.122 15.2348 210.565 15.3864C211.009 15.5379 211.412 15.7841 211.776 16.125C212.139 16.4621 212.429 16.9091 212.645 17.4659C212.861 18.0227 212.969 18.7083 212.969 19.5227V20.0909H206.241V18.9318H211.605C211.605 18.4394 211.507 18 211.31 17.6136C211.116 17.2273 210.84 16.9223 210.48 16.6989C210.124 16.4754 209.704 16.3636 209.219 16.3636C208.685 16.3636 208.223 16.4962 207.832 16.7614C207.446 17.0227 207.149 17.3636 206.94 17.7841C206.732 18.2045 206.628 18.6553 206.628 19.1364V19.9091C206.628 20.5682 206.741 21.1269 206.969 21.5852C207.2 22.0398 207.52 22.3864 207.929 22.625C208.338 22.8598 208.813 22.9773 209.355 22.9773C209.707 22.9773 210.026 22.928 210.31 22.8295C210.598 22.7273 210.846 22.5758 211.054 22.375C211.262 22.1705 211.423 21.9167 211.537 21.6136L212.832 21.9773C212.696 22.4167 212.467 22.803 212.145 23.1364C211.823 23.4659 211.425 23.7235 210.952 23.9091C210.478 24.0909 209.946 24.1818 209.355 24.1818Z" fill="#AFACA2"/>
<rect x="224.5" y="0.5" width="170" height="35" rx="17.5" stroke="#AFACA2"/>
<path d="M245.138 12.3636V24H243.729V12.3636H245.138ZM249.123 18.75V24H247.782V15.2727H249.077V16.6364H249.191C249.396 16.1932 249.706 15.8371 250.123 15.5682C250.54 15.2955 251.077 15.1591 251.737 15.1591C252.327 15.1591 252.844 15.2803 253.288 15.5227C253.731 15.7614 254.076 16.125 254.322 16.6136C254.568 17.0985 254.691 17.7121 254.691 18.4545V24H253.35V18.5455C253.35 17.8598 253.172 17.3258 252.816 16.9432C252.46 16.5568 251.971 16.3636 251.35 16.3636C250.922 16.3636 250.54 16.4564 250.202 16.642C249.869 16.8277 249.606 17.0985 249.413 17.4545C249.219 17.8106 249.123 18.2424 249.123 18.75ZM260.937 15.2727V16.4091H256.414V15.2727H260.937ZM257.732 13.1818H259.073V21.5C259.073 21.8788 259.128 22.1629 259.238 22.3523C259.352 22.5379 259.496 22.6629 259.67 22.7273C259.848 22.7879 260.035 22.8182 260.232 22.8182C260.38 22.8182 260.501 22.8106 260.596 22.7955C260.691 22.7765 260.766 22.7614 260.823 22.75L261.096 23.9545C261.005 23.9886 260.878 24.0227 260.715 24.0568C260.552 24.0947 260.346 24.1136 260.096 24.1136C259.717 24.1136 259.346 24.0322 258.982 23.8693C258.622 23.7064 258.323 23.4583 258.085 23.125C257.85 22.7917 257.732 22.3712 257.732 21.8636V13.1818ZM266.519 24.1818C265.678 24.1818 264.953 23.9962 264.343 23.625C263.737 23.25 263.269 22.7273 262.94 22.0568C262.614 21.3826 262.451 20.5985 262.451 19.7045C262.451 18.8106 262.614 18.0227 262.94 17.3409C263.269 16.6553 263.728 16.1212 264.315 15.7386C264.906 15.3523 265.595 15.1591 266.383 15.1591C266.837 15.1591 267.286 15.2348 267.729 15.3864C268.173 15.5379 268.576 15.7841 268.94 16.125C269.303 16.4621 269.593 16.9091 269.809 17.4659C270.025 18.0227 270.133 18.7083 270.133 19.5227V20.0909H263.406V18.9318H268.769C268.769 18.4394 268.671 18 268.474 17.6136C268.281 17.2273 268.004 16.9223 267.644 16.6989C267.288 16.4754 266.868 16.3636 266.383 16.3636C265.849 16.3636 265.387 16.4962 264.996 16.7614C264.61 17.0227 264.313 17.3636 264.104 17.7841C263.896 18.2045 263.792 18.6553 263.792 19.1364V19.9091C263.792 20.5682 263.906 21.1269 264.133 21.5852C264.364 22.0398 264.684 22.3864 265.093 22.625C265.502 22.8598 265.978 22.9773 266.519 22.9773C266.871 22.9773 267.19 22.928 267.474 22.8295C267.762 22.7273 268.01 22.5758 268.218 22.375C268.426 22.1705 268.587 21.9167 268.701 21.6136L269.996 21.9773C269.86 22.4167 269.631 22.803 269.309 23.1364C268.987 23.4659 268.589 23.7235 268.116 23.9091C267.642 24.0909 267.11 24.1818 266.519 24.1818ZM272.173 24V15.2727H273.468V16.5909H273.559C273.718 16.1591 274.006 15.8087 274.423 15.5398C274.839 15.2708 275.309 15.1364 275.832 15.1364C275.93 15.1364 276.053 15.1383 276.201 15.142C276.349 15.1458 276.46 15.1515 276.536 15.1591V16.5227C276.491 16.5114 276.387 16.4943 276.224 16.4716C276.065 16.4451 275.896 16.4318 275.718 16.4318C275.294 16.4318 274.915 16.5208 274.582 16.6989C274.252 16.8731 273.991 17.1155 273.798 17.4261C273.608 17.733 273.513 18.0833 273.513 18.4773V24H272.173ZM279.467 18.75V24H278.126V15.2727H279.421V16.6364H279.535C279.739 16.1932 280.05 15.8371 280.467 15.5682C280.883 15.2955 281.421 15.1591 282.08 15.1591C282.671 15.1591 283.188 15.2803 283.631 15.5227C284.075 15.7614 284.419 16.125 284.665 16.6136C284.912 17.0985 285.035 17.7121 285.035 18.4545V24H283.694V18.5455C283.694 17.8598 283.516 17.3258 283.16 16.9432C282.804 16.5568 282.315 16.3636 281.694 16.3636C281.266 16.3636 280.883 16.4564 280.546 16.642C280.213 16.8277 279.95 17.0985 279.756 17.4545C279.563 17.8106 279.467 18.2424 279.467 18.75ZM291.144 24.1818C290.303 24.1818 289.578 23.9962 288.968 23.625C288.362 23.25 287.894 22.7273 287.565 22.0568C287.239 21.3826 287.076 20.5985 287.076 19.7045C287.076 18.8106 287.239 18.0227 287.565 17.3409C287.894 16.6553 288.353 16.1212 288.94 15.7386C289.531 15.3523 290.22 15.1591 291.008 15.1591C291.462 15.1591 291.911 15.2348 292.354 15.3864C292.798 15.5379 293.201 15.7841 293.565 16.125C293.928 16.4621 294.218 16.9091 294.434 17.4659C294.65 18.0227 294.758 18.7083 294.758 19.5227V20.0909H288.031V18.9318H293.394C293.394 18.4394 293.296 18 293.099 17.6136C292.906 17.2273 292.629 16.9223 292.269 16.6989C291.913 16.4754 291.493 16.3636 291.008 16.3636C290.474 16.3636 290.012 16.4962 289.621 16.7614C289.235 17.0227 288.938 17.3636 288.729 17.7841C288.521 18.2045 288.417 18.6553 288.417 19.1364V19.9091C288.417 20.5682 288.531 21.1269 288.758 21.5852C288.989 22.0398 289.309 22.3864 289.718 22.625C290.127 22.8598 290.603 22.9773 291.144 22.9773C291.496 22.9773 291.815 22.928 292.099 22.8295C292.387 22.7273 292.635 22.5758 292.843 22.375C293.051 22.1705 293.212 21.9167 293.326 21.6136L294.621 21.9773C294.485 22.4167 294.256 22.803 293.934 23.1364C293.612 23.4659 293.214 23.7235 292.741 23.9091C292.267 24.0909 291.735 24.1818 291.144 24.1818ZM300.593 15.2727V16.4091H296.07V15.2727H300.593ZM297.388 13.1818H298.729V21.5C298.729 21.8788 298.784 22.1629 298.894 22.3523C299.008 22.5379 299.152 22.6629 299.326 22.7273C299.504 22.7879 299.692 22.8182 299.888 22.8182C300.036 22.8182 300.157 22.8106 300.252 22.7955C300.347 22.7765 300.423 22.7614 300.479 22.75L300.752 23.9545C300.661 23.9886 300.534 24.0227 300.371 24.0568C300.209 24.0947 300.002 24.1136 299.752 24.1136C299.373 24.1136 299.002 24.0322 298.638 23.8693C298.279 23.7064 297.979 23.4583 297.741 23.125C297.506 22.7917 297.388 22.3712 297.388 21.8636V13.1818ZM310.656 24.1818C309.868 24.1818 309.176 23.9943 308.582 23.6193C307.991 23.2443 307.529 22.7197 307.195 22.0455C306.866 21.3712 306.701 20.5833 306.701 19.6818C306.701 18.7727 306.866 17.9792 307.195 17.3011C307.529 16.6231 307.991 16.0966 308.582 15.7216C309.176 15.3466 309.868 15.1591 310.656 15.1591C311.443 15.1591 312.133 15.3466 312.724 15.7216C313.318 16.0966 313.781 16.6231 314.11 17.3011C314.443 17.9792 314.61 18.7727 314.61 19.6818C314.61 20.5833 314.443 21.3712 314.11 22.0455C313.781 22.7197 313.318 23.2443 312.724 23.6193C312.133 23.9943 311.443 24.1818 310.656 24.1818ZM310.656 22.9773C311.254 22.9773 311.746 22.8239 312.133 22.517C312.519 22.2102 312.805 21.8068 312.991 21.3068C313.176 20.8068 313.269 20.2652 313.269 19.6818C313.269 19.0985 313.176 18.5549 312.991 18.0511C312.805 17.5473 312.519 17.1402 312.133 16.8295C311.746 16.5189 311.254 16.3636 310.656 16.3636C310.057 16.3636 309.565 16.5189 309.178 16.8295C308.792 17.1402 308.506 17.5473 308.32 18.0511C308.135 18.5549 308.042 19.0985 308.042 19.6818C308.042 20.2652 308.135 20.8068 308.32 21.3068C308.506 21.8068 308.792 22.2102 309.178 22.517C309.565 22.8239 310.057 22.9773 310.656 22.9773ZM320.543 15.2727V16.4091H315.839V15.2727H320.543ZM317.248 24V14.0682C317.248 13.5682 317.365 13.1515 317.6 12.8182C317.835 12.4848 318.14 12.2348 318.515 12.0682C318.89 11.9015 319.286 11.8182 319.702 11.8182C320.032 11.8182 320.301 11.8447 320.509 11.8977C320.718 11.9508 320.873 12 320.975 12.0455L320.589 13.2045C320.521 13.1818 320.426 13.1534 320.305 13.1193C320.187 13.0852 320.032 13.0682 319.839 13.0682C319.396 13.0682 319.076 13.1799 318.879 13.4034C318.685 13.6269 318.589 13.9545 318.589 14.3864V24H317.248ZM326.468 13.6136V12.3636H335.195V13.6136H331.536V24H330.127V13.6136H326.468ZM338.529 18.75V24H337.188V12.3636H338.529V16.6364H338.643C338.847 16.1856 339.154 15.8277 339.563 15.5625C339.976 15.2936 340.525 15.1591 341.211 15.1591C341.806 15.1591 342.326 15.2784 342.773 15.517C343.22 15.7519 343.567 16.1136 343.813 16.6023C344.063 17.0871 344.188 17.7045 344.188 18.4545V24H342.847V18.5455C342.847 17.8523 342.667 17.3163 342.308 16.9375C341.951 16.5549 341.457 16.3636 340.825 16.3636C340.385 16.3636 339.991 16.4564 339.643 16.642C339.298 16.8277 339.025 17.0985 338.825 17.4545C338.628 17.8106 338.529 18.2424 338.529 18.75ZM346.641 24V15.2727H347.982V24H346.641ZM347.323 13.8182C347.062 13.8182 346.836 13.7292 346.647 13.5511C346.461 13.3731 346.369 13.1591 346.369 12.9091C346.369 12.6591 346.461 12.4451 346.647 12.267C346.836 12.089 347.062 12 347.323 12C347.585 12 347.808 12.089 347.994 12.267C348.183 12.4451 348.278 12.6591 348.278 12.9091C348.278 13.1591 348.183 13.3731 347.994 13.5511C347.808 13.7292 347.585 13.8182 347.323 13.8182ZM351.779 18.75V24H350.438V15.2727H351.734V16.6364H351.847C352.052 16.1932 352.362 15.8371 352.779 15.5682C353.196 15.2955 353.734 15.1591 354.393 15.1591C354.984 15.1591 355.501 15.2803 355.944 15.5227C356.387 15.7614 356.732 16.125 356.978 16.6136C357.224 17.0985 357.347 17.7121 357.347 18.4545V24H356.006V18.5455C356.006 17.8598 355.828 17.3258 355.472 16.9432C355.116 16.5568 354.628 16.3636 354.006 16.3636C353.578 16.3636 353.196 16.4564 352.859 16.642C352.525 16.8277 352.262 17.0985 352.069 17.4545C351.876 17.8106 351.779 18.2424 351.779 18.75ZM363.32 27.4545C362.673 27.4545 362.116 27.3712 361.65 27.2045C361.184 27.0417 360.796 26.8258 360.485 26.5568C360.178 26.2917 359.934 26.0076 359.752 25.7045L360.82 24.9545C360.942 25.1136 361.095 25.2955 361.281 25.5C361.466 25.7083 361.72 25.8883 362.042 26.0398C362.368 26.1951 362.794 26.2727 363.32 26.2727C364.025 26.2727 364.606 26.1023 365.065 25.7614C365.523 25.4205 365.752 24.8864 365.752 24.1591V22.3864H365.638C365.54 22.5455 365.4 22.7424 365.218 22.9773C365.04 23.2083 364.782 23.4148 364.445 23.5966C364.112 23.7746 363.661 23.8636 363.093 23.8636C362.388 23.8636 361.756 23.697 361.195 23.3636C360.638 23.0303 360.197 22.5455 359.871 21.9091C359.549 21.2727 359.388 20.5 359.388 19.5909C359.388 18.697 359.546 17.9186 359.86 17.2557C360.174 16.589 360.612 16.0739 361.173 15.7102C361.733 15.3428 362.381 15.1591 363.116 15.1591C363.684 15.1591 364.135 15.2538 364.468 15.4432C364.805 15.6288 365.063 15.8409 365.241 16.0795C365.423 16.3144 365.563 16.5076 365.661 16.6591H365.798V15.2727H367.093V24.25C367.093 25 366.923 25.6098 366.582 26.0795C366.245 26.553 365.79 26.8996 365.218 27.1193C364.65 27.3428 364.017 27.4545 363.32 27.4545ZM363.275 22.6591C363.813 22.6591 364.267 22.536 364.638 22.2898C365.01 22.0436 365.292 21.6894 365.485 21.2273C365.678 20.7652 365.775 20.2121 365.775 19.5682C365.775 18.9394 365.68 18.3845 365.491 17.9034C365.301 17.4223 365.021 17.0455 364.65 16.7727C364.279 16.5 363.82 16.3636 363.275 16.3636C362.707 16.3636 362.233 16.5076 361.854 16.7955C361.479 17.0833 361.197 17.4697 361.008 17.9545C360.822 18.4394 360.729 18.9773 360.729 19.5682C360.729 20.1742 360.824 20.7102 361.013 21.1761C361.207 21.6383 361.491 22.0019 361.866 22.267C362.245 22.5284 362.714 22.6591 363.275 22.6591ZM375.729 17.2273L374.525 17.5682C374.449 17.3674 374.337 17.1723 374.19 16.983C374.046 16.7898 373.849 16.6307 373.599 16.5057C373.349 16.3807 373.029 16.3182 372.638 16.3182C372.104 16.3182 371.659 16.4413 371.303 16.6875C370.951 16.9299 370.775 17.2386 370.775 17.6136C370.775 17.947 370.896 18.2102 371.138 18.4034C371.381 18.5966 371.76 18.7576 372.275 18.8864L373.57 19.2045C374.351 19.3939 374.932 19.6837 375.315 20.0739C375.697 20.4602 375.888 20.9583 375.888 21.5682C375.888 22.0682 375.745 22.5152 375.457 22.9091C375.173 23.303 374.775 23.6136 374.263 23.8409C373.752 24.0682 373.157 24.1818 372.479 24.1818C371.589 24.1818 370.853 23.9886 370.269 23.6023C369.686 23.2159 369.317 22.6515 369.161 21.9091L370.434 21.5909C370.555 22.0606 370.784 22.4129 371.121 22.6477C371.462 22.8826 371.907 23 372.457 23C373.082 23 373.578 22.8674 373.945 22.6023C374.317 22.3333 374.502 22.0114 374.502 21.6364C374.502 21.3333 374.396 21.0795 374.184 20.875C373.972 20.6667 373.646 20.5114 373.207 20.4091L371.752 20.0682C370.953 19.8788 370.366 19.5852 369.991 19.1875C369.62 18.786 369.434 18.2841 369.434 17.6818C369.434 17.1894 369.572 16.7538 369.849 16.375C370.129 15.9962 370.51 15.6989 370.991 15.483C371.476 15.267 372.025 15.1591 372.638 15.1591C373.502 15.1591 374.18 15.3485 374.673 15.7273C375.169 16.1061 375.521 16.6061 375.729 17.2273Z" fill="#AFACA2"/>
</svg>
